<?xml version="1.0" standalone="no"?><svg xmlns="http://www.w3.org/2000/svg" viewBox="0 0 1440 320"><path fill="#ffe4cf" fill-opacity="1" d="M0,192L24,176C48,160,96,128,144,133.3C192,139,240,181,288,197.3C336,213,384,203,432,170.7C480,139,528,85,576,90.7C624,96,672,160,720,165.3C768,171,816,117,864,85.3C912,53,960,43,1008,42.7C1056,43,1104,53,1152,85.3C1200,117,1248,171,1296,186.7C1344,203,1392,181,1416,170.7L1440,160L1440,320L1416,320C1392,320,1344,320,1296,320C1248,320,1200,320,1152,320C1104,320,1056,320,1008,320C960,320,912,320,864,320C816,320,768,320,720,320C672,320,624,320,576,320C528,320,480,320,432,320C384,320,336,320,288,320C240,320,192,320,144,320C96,320,48,320,24,320L0,320Z"></path></svg>