<?xml version="1.0" standalone="no"?><svg xmlns="http://www.w3.org/2000/svg" viewBox="0 0 1440 320"><path fill="#ffe4cf" fill-opacity="1" d="M0,224L24,224C48,224,96,224,144,234.7C192,245,240,267,288,272C336,277,384,267,432,245.3C480,224,528,192,576,160C624,128,672,96,720,122.7C768,149,816,235,864,240C912,245,960,171,1008,133.3C1056,96,1104,96,1152,133.3C1200,171,1248,245,1296,240C1344,235,1392,149,1416,106.7L1440,64L1440,320L1416,320C1392,320,1344,320,1296,320C1248,320,1200,320,1152,320C1104,320,1056,320,1008,320C960,320,912,320,864,320C816,320,768,320,720,320C672,320,624,320,576,320C528,320,480,320,432,320C384,320,336,320,288,320C240,320,192,320,144,320C96,320,48,320,24,320L0,320Z"></path></svg>