<?xml version="1.0" standalone="no"?><svg xmlns="http://www.w3.org/2000/svg" viewBox="0 0 1440 320"><path fill="#ffe4cf" fill-opacity="1" d="M0,192L24,165.3C48,139,96,85,144,80C192,75,240,117,288,122.7C336,128,384,96,432,101.3C480,107,528,149,576,154.7C624,160,672,128,720,149.3C768,171,816,245,864,245.3C912,245,960,171,1008,144C1056,117,1104,139,1152,154.7C1200,171,1248,181,1296,165.3C1344,149,1392,107,1416,85.3L1440,64L1440,320L1416,320C1392,320,1344,320,1296,320C1248,320,1200,320,1152,320C1104,320,1056,320,1008,320C960,320,912,320,864,320C816,320,768,320,720,320C672,320,624,320,576,320C528,320,480,320,432,320C384,320,336,320,288,320C240,320,192,320,144,320C96,320,48,320,24,320L0,320Z"></path></svg>